<?xml version="1.0" encoding="utf-8"?>
<!-- Generator: Adobe Illustrator 22.1.0, SVG Export Plug-In . SVG Version: 6.00 Build 0)  -->
<svg version="1.1" id="Layer_1" xmlns="http://www.w3.org/2000/svg" xmlns:xlink="http://www.w3.org/1999/xlink" x="0px" y="0px"
	 viewBox="0 0 600 600" style="enable-background:new 0 0 600 600;" xml:space="preserve">
<style type="text/css">
	.st0{fill:#2A87C7;}
	.st1{fill:#2B87C8;}
</style>
<g>
	<path class="st0" d="M375.4,279.7c0.4-38.2,4.2-67.8,20.5-94.5c13.5-22.2,33-35.6,58.7-40.1c4.4-0.8,7.7-0.3,11.1,3.1
		c39.4,39.8,79.2,79.3,118.4,119.4c20.6,21,19.8,45.2-1,66.3c-17.6,17.8-35.3,35.6-52.9,53.4c-2.5,2.5-4.9,5.1-8.5,6
		c-23.1,6.1-46.4,9.3-70,4.2c-40.8-8.9-60.8-37.7-70.4-75.7C376.9,305.6,375,288.9,375.4,279.7z"/>
	<path class="st0" d="M318.9,595.5c-3.2,2.4-6.7,3.5-10.7,3.4c-5.2-2.5-10.5-2.4-15.8-0.1c-1.2-0.3-2.4-0.5-3.7-0.8
		c-0.8-2.4-2.6-2.4-4.6-2.1c-0.8-0.3-1.6-0.5-2.4-0.8c-0.4-2.7-2.2-3.1-4.4-2.8c-7.9-3.7-13-10.7-18.9-16.7
		c-11.3-11.4-22.3-23-33.5-34.5c0.6-4.5-0.6-7.5-4.7-10.4c-4.6-3.2-9.5-6.7-9.4-13.9c0.2-76.4,0.1-152.8,0-229.2
		c0-5.2,1.3-7.4,6.9-7.3c16.2,0.3,32.5,0.3,48.7,0c7.1-0.1,9.7,3.7,9.9,9.7c0.3,11.8,2,23.3,3.7,34.9c4,27,12,53.2,25.7,76.5
		c17,28.8,42.5,49.7,73.5,63.4c16.7,7.4,34.3,11.4,52.6,14.7c-5,7.8-13.3,12.4-15.2,21.4c-18.4,19.8-37.3,39.1-57.2,57.4
		c-2.1,0.1-4.1,0.1-5.8,1.7c-10.8,10.4-20.8,21.6-32.6,30.8C319.5,591.9,318.9,593.6,318.9,595.5z"/>
	<path class="st1" d="M83.8,201.2c7-7.3,13.7-14.5,20.7-21.5C158.9,124.9,213.4,70.1,268,15.5c20.3-20.3,44.1-20.7,64.8-0.6
		c20.5,19.9,40.3,40.6,60.5,60.8c3.7,3.7,3.4,5.1-1.4,7.1c-50.5,21.5-82,60.1-98.8,111.4c-2.1,6.4-4.7,8.6-11.7,8.6
		c-63.1-0.3-126.2-0.2-189.3-0.2C89.7,202.5,87,203.5,83.8,201.2z"/>
	<path class="st0" d="M111.7,427.3c-0.6-0.6-1.2-1.2-1.7-1.8c-3.7-8-9.7-13.8-17.6-17.7c-2.4-1.2-4.2-3-5.4-5.4
		c-6.8-10.8-15.7-19.5-26.3-26.5c-16.6-15.4-32.6-31.5-47.9-48.2c-2.6-2.8-4.9-5.9-5.7-9.8c0-2.2,0.8-4.6-2.2-5.6
		c-0.3-1.2-0.6-2.5-0.9-3.7c2.1-5.2,2.3-10.5-0.1-15.7c0.3-6.1,2.7-11.4,6.5-16.2c31.8,0,63.5,0.2,95.3,0c6.5,0,9.7,1.5,9.6,8.8
		c-0.2,45-0.1,90-0.1,135C115.2,423.3,116,426.7,111.7,427.3z"/>
	<path class="st1" d="M416.5,500.8c1.9-9,10.2-13.6,15.2-21.4c-18.3-3.3-35.9-7.3-52.6-14.7c-30.9-13.7-56.4-34.6-73.5-63.4
		c-13.7-23.2-21.7-49.4-25.7-76.5c-1.7-11.6-3.3-23.2-3.7-34.9c-0.2-6-2.8-9.8-9.9-9.7c-16.2,0.3-32.5,0.3-48.7,0
		c-5.6-0.1-7,2.2-6.9,7.3c0.1,76.4,0.1,152.8,0,229.2c0,7.2,4.9,10.7,9.4,13.9c4.1,2.9,5.3,5.9,4.7,10.4c-6.5-4.2-11-10.6-16.6-15.8
		c-2.5-2.3-2-5.4-2-8.3c0-78.5,0-156.9-0.2-235.4c0-5.5,1.7-7.1,7.1-7.1c20.1,0.3,40.1,0.3,60.2,0c5.8-0.1,7.5,1.5,7.6,7.4
		c0.7,31.1,5.3,61.7,16.5,90.9c12.3,32,32.5,57.7,61.3,76.5c23,15,48.7,21.2,75.4,24.5c2.3,0.3,4.5,0.4,5.4,0.5
		C432.2,483,424.3,491.9,416.5,500.8z"/>
	<path class="st1" d="M111.7,427.3c4.4-0.6,3.6-4,3.6-6.8c0-45-0.1-90,0.1-135c0-7.3-3.2-8.8-9.6-8.8c-31.8,0.2-63.5,0-95.3,0
		c2.3-2.7,5.4-2,8.3-2c30.4,0,60.7,0.1,91.1-0.1c5.2,0,8,0.6,8,7c-0.3,48.6-0.1,97.3-0.2,145.9c0,1.4-0.4,2.8-0.5,4.2
		C113.9,431.4,112.7,429.5,111.7,427.3z"/>
	<path class="st1" d="M318.9,595.5c0.1-1.9,0.7-3.5,2.1-4.7c11.8-9.3,21.8-20.5,32.6-30.8c1.6-1.6,3.7-1.7,5.8-1.7
		c-10.2,11.3-20.5,22.7-32.2,32.6C324.7,592.9,322.3,595.1,318.9,595.5z"/>
	<path class="st1" d="M60.7,375.9c10.6,7,19.5,15.7,26.3,26.5C77.2,394.6,68.4,385.8,60.7,375.9z"/>
	<path class="st1" d="M92.4,407.8c7.8,4,13.8,9.7,17.6,17.7C103.2,420.5,97.3,414.6,92.4,407.8z"/>
	<path class="st1" d="M4,292.8c2.3,5.2,2.2,10.4,0.1,15.7C2.1,303.3,2,298.1,4,292.8z"/>
	<path class="st1" d="M292.4,598.7c5.3-2.3,10.5-2.4,15.8,0.1C302.9,601.2,297.7,600.8,292.4,598.7z"/>
	<path class="st1" d="M5,312.2c2.9,1,2.2,3.5,2.2,5.6C5.4,316.4,4.7,314.5,5,312.2z"/>
	<path class="st1" d="M277.2,592.2c2.2-0.3,4,0.1,4.4,2.8C279.7,594.9,278.3,593.8,277.2,592.2z"/>
	<path class="st1" d="M284.1,595.8c2-0.3,3.9-0.3,4.6,2.1C286.8,598,285.3,597.4,284.1,595.8z"/>
</g>
</svg>
